<svg xmlns="http://www.w3.org/2000/svg" viewBox="0 0 900 320">
  <defs>
    <linearGradient id="bg" x1="0%" y1="0%" x2="100%" y2="100%">
      <stop offset="0%" style="stop-color:#0a0b0d"/>
      <stop offset="100%" style="stop-color:#131519"/>
    </linearGradient>
    <linearGradient id="rust" x1="0%" y1="0%" x2="100%" y2="0%">
      <stop offset="0%" style="stop-color:#e5734a"/>
      <stop offset="100%" style="stop-color:#f59e0b"/>
    </linearGradient>
    <linearGradient id="glow" x1="50%" y1="0%" x2="50%" y2="100%">
      <stop offset="0%" style="stop-color:#e5734a;stop-opacity:0.15"/>
      <stop offset="100%" style="stop-color:#e5734a;stop-opacity:0"/>
    </linearGradient>
    <filter id="shadow">
      <feDropShadow dx="0" dy="2" stdDeviation="8" flood-color="#e5734a" flood-opacity="0.3"/>
    </filter>
  </defs>

  <!-- Background -->
  <rect width="900" height="320" rx="16" fill="url(#bg)"/>

  <!-- Subtle grid -->
  <g opacity="0.04" stroke="#e4e4e7" stroke-width="0.5">
    <line x1="0" y1="80" x2="900" y2="80"/>
    <line x1="0" y1="160" x2="900" y2="160"/>
    <line x1="0" y1="240" x2="900" y2="240"/>
    <line x1="180" y1="0" x2="180" y2="320"/>
    <line x1="360" y1="0" x2="360" y2="320"/>
    <line x1="540" y1="0" x2="540" y2="320"/>
    <line x1="720" y1="0" x2="720" y2="320"/>
  </g>

  <!-- Glow orb -->
  <ellipse cx="450" cy="100" rx="300" ry="180" fill="url(#glow)"/>

  <!-- Rust gear/cog icon -->
  <g transform="translate(450, 115)" filter="url(#shadow)">
    <!-- Outer gear teeth -->
    <g fill="url(#rust)" opacity="0.9">
      <rect x="-4" y="-52" width="8" height="14" rx="2"/>
      <rect x="-4" y="38" width="8" height="14" rx="2"/>
      <rect x="-52" y="-4" width="14" height="8" rx="2"/>
      <rect x="38" y="-4" width="14" height="8" rx="2"/>
      <rect x="30" y="-38" width="8" height="14" rx="2" transform="rotate(45, 34, -31)"/>
      <rect x="-38" y="24" width="8" height="14" rx="2" transform="rotate(45, -34, 31)"/>
      <rect x="-38" y="-38" width="8" height="14" rx="2" transform="rotate(-45, -34, -31)"/>
      <rect x="30" y="24" width="8" height="14" rx="2" transform="rotate(-45, 34, 31)"/>
    </g>
    <!-- Outer ring -->
    <circle cx="0" cy="0" r="38" fill="none" stroke="url(#rust)" stroke-width="7" opacity="0.9"/>
    <!-- Inner hole -->
    <circle cx="0" cy="0" r="14" fill="#0a0b0d"/>
    <!-- Center dot -->
    <circle cx="0" cy="0" r="5" fill="url(#rust)" opacity="0.7"/>
  </g>

  <!-- Title -->
  <text x="450" y="210" text-anchor="middle" font-family="'SF Mono', 'Fira Code', 'JetBrains Mono', Consolas, monospace" font-size="38" font-weight="700" fill="#e4e4e7" letter-spacing="-1">
    LeetCode in <tspan fill="url(#rust)">Rust</tspan>
  </text>

  <!-- Subtitle -->
  <text x="450" y="248" text-anchor="middle" font-family="'SF Pro Display', 'Segoe UI', Helvetica, sans-serif" font-size="15" fill="#71717a" letter-spacing="0.5">
    From C to Rust, one problem at a time
  </text>

  <!-- Tags -->
  <g transform="translate(450, 282)" font-family="'SF Mono', 'Fira Code', monospace" font-size="11">
    <rect x="-218" y="-12" width="90" height="24" rx="12" fill="#1a1c1f" stroke="#2a2d31" stroke-width="1"/>
    <text x="-173" y="4" text-anchor="middle" fill="#4ade80">rust-analyzer</text>

    <rect x="-113" y="-12" width="78" height="24" rx="12" fill="#1a1c1f" stroke="#2a2d31" stroke-width="1"/>
    <text x="-74" y="4" text-anchor="middle" fill="#60a5fa">auto-tests</text>

    <rect x="-20" y="-12" width="72" height="24" rx="12" fill="#1a1c1f" stroke="#2a2d31" stroke-width="1"/>
    <text x="16" y="4" text-anchor="middle" fill="#f59e0b">C &#x2192; Rust</text>

    <rect x="67" y="-12" width="68" height="24" rx="12" fill="#1a1c1f" stroke="#2a2d31" stroke-width="1"/>
    <text x="101" y="4" text-anchor="middle" fill="#c084fc">42 school</text>

    <rect x="150" y="-12" width="68" height="24" rx="12" fill="#1a1c1f" stroke="#2a2d31" stroke-width="1"/>
    <text x="184" y="4" text-anchor="middle" fill="#e5734a">neetcode</text>
  </g>
</svg>
